<svg id="Layer_1" enable-background="new 0 0 512 512" height="512" viewBox="0 0 512 512" width="512" xmlns="http://www.w3.org/2000/svg"><g><path d="m384.533 512h-257.066c-70.285 0-127.467-57.182-127.467-127.467v-257.066c0-70.285 57.182-127.467 127.467-127.467h257.066c70.285 0 127.467 57.182 127.467 127.467v257.066c0 70.285-57.182 127.467-127.467 127.467z" fill="#0082f5"/><path d="m512 384.533v-257.066c0-70.285-57.182-127.467-127.467-127.467h-128.533v512h128.533c70.285 0 127.467-57.182 127.467-127.467z" fill="#0050be"/><path d="m127.467 30c-53.743 0-97.467 43.724-97.467 97.467v257.066c0 53.743 43.724 97.467 97.467 97.467h257.066c53.743 0 97.467-43.724 97.467-97.467v-257.066c0-53.743-43.724-97.467-97.467-97.467z" fill="#00b4ff"/><path d="m482 384.533v-257.066c0-53.743-43.724-97.467-97.467-97.467h-128.533v452h128.533c53.743 0 97.467-43.724 97.467-97.467z" fill="#0082f5"/><g fill="#fffaec"><circle cx="256" cy="381.323" r="24.626"/><path d="m294.631 342.691c9.624 9.623 25.206 9.633 34.838 0 9.621-9.62 9.634-25.205 0-34.837-19.624-19.625-45.716-30.432-73.469-30.432-27.752 0-53.844 10.808-73.469 30.432-9.621 9.619-9.635 25.204 0 34.837 9.621 9.623 25.204 9.633 34.838 0 10.318-10.319 24.038-16.001 38.631-16.001s28.313 5.682 38.631 16.001z"/><path d="m256 247.422c35.765 0 69.39 13.928 94.682 39.218 9.624 9.623 25.205 9.633 34.837 0 9.624-9.623 9.634-25.204 0-34.837-71.416-71.417-187.621-71.417-259.037 0-9.622 9.622-9.635 25.204-.001 34.837 9.622 9.623 25.204 9.634 34.838 0 25.289-25.29 58.915-39.218 94.681-39.218z"/><path d="m406.731 230.589c9.622 9.622 25.204 9.635 34.837 0 9.623-9.62 9.635-25.205.001-34.836-49.567-49.567-115.47-76.865-185.569-76.865s-136.002 27.298-185.569 76.865c-9.621 9.62-9.634 25.204 0 34.836 9.624 9.624 25.204 9.634 34.838 0 83.114-83.111 218.35-83.113 301.462 0z"/></g><path d="m280.626 381.323c0-13.601-11.025-24.626-24.626-24.626v49.252c13.601 0 24.626-11.026 24.626-24.626z" fill="#dadcdf"/><path d="m294.631 342.691c9.624 9.623 25.206 9.633 34.838 0 9.621-9.62 9.634-25.205 0-34.837-19.624-19.625-45.716-30.432-73.469-30.432v49.268c14.593-.001 28.313 5.682 38.631 16.001z" fill="#dadcdf"/><path d="m385.519 286.641c9.624-9.623 9.634-25.204 0-34.837-35.708-35.708-82.613-53.563-129.519-53.563v49.181c35.765 0 69.39 13.928 94.682 39.218 9.624 9.623 25.205 9.633 34.837.001z" fill="#dadcdf"/><path d="m406.731 230.59c9.622 9.622 25.204 9.634 34.837 0 9.623-9.62 9.635-25.205.001-34.836-49.567-49.568-115.47-76.866-185.569-76.866v49.367c54.588 0 109.175 20.778 150.731 62.335z" fill="#dadcdf"/></g></svg>